# xmcd
#
# Track frame offsets:
#	151
#	15100
#	35141
#	49126
#	64053
#	79418
#	96569
#	109670
#	126297
#	141724
#	159021
#	177000
#
# Disc length: 2565 seconds
#
# Revision: 1
# Processed by: cddbd v1.4PL0 Copyright (c) Steve Scherf et al.
# Submitted via: audiograbber 1.81.02
#
DISCID=a10a030c
DTITLE=Forum - Tvoja Pjesma
DYEAR=2000
DGENRE=
TTITLE0=Barka
TTITLE1=Majko
TTITLE2=Bas tako bilo je sve
TTITLE3=Zivot je lip
TTITLE4=Tvoja pjesma
TTITLE5=Zivot za zivot
TTITLE6=Za nju
TTITLE7=Nisan ni ja
TTITLE8=Palija se ja
TTITLE9=Moja jedina
TTITLE10=Nija ze tebe covik ka' ja
TTITLE11=Suspicious minds
EXTD=
EXTT0=
EXTT1=
EXTT2=
EXTT3=
EXTT4=
EXTT5=
EXTT6=
EXTT7=
EXTT8=
EXTT9=
EXTT10=
EXTT11=
PLAYORDER=
